<svg xmlns="http://www.w3.org/2000/svg" height="184.83412322274881" viewBox="0 0 424 314" style="width: 250px;"><polygon fill="#eeeeee" stroke="transparent" stroke-width="1" vector-effect="non-scaling-stroke" points="0 246.2 4.2 238.4 4.3 238.2 7 229.8 8.6 223.5 9.7 218.9 10.5 215.5 9.7 213.2 12.3 210.4 16.2 203.7 19.4 195.1 20.3 191.2 22 184.4 24.2 173.1 24.9 169.7 27 155.7 28 146.2 28 143.3 27.9 142.5 30 133.2 30.3 127 31.6 117.5 32 112.4 31.7 105.5 32.4 102.8 34.8 94.6 35.8 87.7 35.8 87.6 37.9 80.5 38.2 75.4 38.9 70.8 38.3 65.9 39.5 59.9 38.9 55.6 40.6 50.2 41.3 43.2 41.4 39.8 40.1 36.2 40.3 34.3 40.7 30.4 40.6 25.3 39.4 22.4 42.3 20.3 42.9 15.6 41.7 8.3 37.8 4.1 40.1 1.4 44.2 5.7 48 4.9 52.1 3.5 54 5.4 57 3.5 60.8 2.7 62.8 0.6 66.3 0 68.8 3 68.5 6.4 71.4 9.1 71.8 9.1 76 9.4 79.5 7.6 81.9 6.4 84.4 6.7 89.9 10.6 91.9 12.8 94.9 14.4 97.1 19.5 99.2 23.5 99.2 27 100.4 30.3 100.2 31.5 99.8 34.4 101.4 38.2 101.1 40.4 100.6 43.9 101.5 45.2 102.4 46.6 107.1 49.2 114.8 51.3 117.5 52.8 120.5 52 122.9 54 126.4 54.4 127.1 54 130.5 52.1 134.7 51.7 139.7 49.5 142.4 47.4 143.8 46.7 145 46.2 146.8 44 149.6 43 153.5 44 156.9 43.3 163.8 41.8 164.3 42 168.5 43.9 169.3 44.2 173.7 43.5 179.9 46 181.5 50.7 184.6 50 186.6 47.7 193.7 47.2 195.3 47.8 196.2 48.2 198.2 46.1 206.7 42.9 208.6 41.4 209.5 40.7 211.7 40.7 216 44.1 216.9 44.1 221.2 44.1 227.4 42.5 231.1 42.1 234.6 38.7 238.2 37.8 241.8 35.9 243.5 34.9 248.4 33.9 251.7 33.2 258.5 32.5 261.9 27.9 263.4 27.4 267.7 28.8 270.5 28.2 273.9 27.6 279.3 26.2 286 26.6 289.2 24.6 292.9 21.6 292.9 21.6 308.6 21.2 312.2 21.1 324.2 20.8 343 20.3 344 20.3 357.1 19.9 362.9 19.8 369.2 19.6 375.5 19.5 397.7 18.6 399.3 21.3 400.8 24.9 404.1 28.9 404.7 29.6 407.3 30.5 411.1 33.6 414.8 33.6 417.8 36.7 418.4 40.5 421.9 45.1 420.1 48.8 416.2 58 412.2 67.5 411.5 70.8 411.3 71.9 408.8 82.2 407.4 84.9 407.4 85 404.6 88.4 403.9 92.3 405.3 95.8 403.9 100.1 402.7 102.4 400.7 106.3 396.6 108.7 394.2 111 392.7 116.5 390.5 123.4 389.3 126 386.4 129.3 387.1 133 385.8 135.7 387.2 137.9 388.6 140.1 387.7 142.5 387.4 143.1 389.9 145.1 392.5 143.7 395.8 146.5 400.4 146.4 400.8 149.4 404.1 150.3 404.6 152.1 404.5 152.2 400.5 157.3 402.8 161.3 401.8 164.7 401.2 171.1 400.7 172.1 398.9 176.4 399.3 186.8 399.5 192.9 401.2 234.3 401.9 250.1 403.2 281.2 404.4 308.6 395.1 309 384 309.5 372.1 310 358.5 310.4 341 311.1 341 311.1 324.6 311.6 309.7 312.1 297.5 312.3 286.3 312.5 280 312.6 278.1 312.6 258.3 312.7 243.5 312.9 233.6 313 216.3 313 205.9 313 195.8 313 187.4 313 175.7 312.6 165.5 312.5 165 312.5 152.7 312.1 143.4 311.8 129.6 311.3 119.5 311 119.4 311 108 310.7 91.8 310.6 78.5 310.2 73.1 309.6 68.5 309.8 62.2 310 57.5 309.6 52.9 309.7 45.4 309.7 36.5 309.3 26.8 308.8 15.4 308.2 12.4 304.6 10.1 302.9 8.3 298.3 8 294.6 6.9 291.2 5.5 289.4 5.7 285.3 5.1 282 4.9 275.6 7.1 268.4 7.2 264.3 6.8 259.8 4.9 258.5 5 257.4 1.9 254 "></polygon> <path fill="transparent" stroke="#ffffff" stroke-width="0" d="M158.2 121.9c5.8-3 24.8-11.6 52.7-11.6s46.9 8.6 52.7 11.6c-0.1-0.2 0.2 0.1 0 0 3.2 6.4 12 26.6 10.4 47.7 -4.7 59.5-52.2 78.5-63.1 82.1 0.2 0.1-0.2 0.1 0 0 -10.9-3.6-58.4-22.5-63.1-82.1C146.2 148.5 155.1 128.3 158.2 121.9"></path></svg>